<svg xmlns="http://www.w3.org/2000/svg" width="40" height="32" viewBox="0 0 40 32">
  <g id="ClientesIcon" transform="translate(-1570 -28)">
    <g id="Rect치ngulo_166" data-name="Rect치ngulo 166" transform="translate(1570 35)" fill="none" stroke="#f2f2f2" stroke-width="3">
      <rect width="40" height="25" rx="5" stroke="none"/>
      <rect x="1.5" y="1.5" width="37" height="22" rx="3.5" fill="none"/>
    </g>
    <g id="Rect치ngulo_169" data-name="Rect치ngulo 169" transform="translate(1577 28)" fill="none" stroke="#f2f2f2" stroke-width="1">
      <path d="M3.5,0h19A3.5,3.5,0,0,1,26,3.5V9a0,0,0,0,1,0,0H0A0,0,0,0,1,0,9V3.5A3.5,3.5,0,0,1,3.5,0Z" stroke="none"/>
      <path d="M3.5.5h19a3,3,0,0,1,3,3V8a.5.5,0,0,1-.5.5H1A.5.5,0,0,1,.5,8V3.5A3,3,0,0,1,3.5.5Z" fill="none"/>
    </g>
  </g>
</svg>
