<svg xmlns="http://www.w3.org/2000/svg" xmlns:xlink="http://www.w3.org/1999/xlink" width="58" height="50" viewBox="0 0 58 50">
  <defs>
    <linearGradient id="linear-gradient" x1="0.018" x2="0.857" y2="0.767" gradientUnits="objectBoundingBox">
      <stop offset="0" stop-color="#0109fc"/>
      <stop offset="1" stop-color="#0a92fc"/>
    </linearGradient>
    <filter id="Rectángulo_166" x="0" y="7" width="58" height="43" filterUnits="userSpaceOnUse">
      <feOffset dy="3" input="SourceAlpha"/>
      <feGaussianBlur stdDeviation="3" result="blur"/>
      <feFlood flood-opacity="0.161"/>
      <feComposite operator="in" in2="blur"/>
      <feComposite in="SourceGraphic"/>
    </filter>
    <filter id="Rectángulo_168" x="7" y="0" width="44" height="27" filterUnits="userSpaceOnUse">
      <feOffset dy="3" input="SourceAlpha"/>
      <feGaussianBlur stdDeviation="3" result="blur-2"/>
      <feFlood flood-opacity="0.161"/>
      <feComposite operator="in" in2="blur-2"/>
      <feComposite in="SourceGraphic"/>
    </filter>
    <linearGradient id="linear-gradient-2" x1="0.018" y1="1" x2="1.701" y2="0.597" gradientUnits="objectBoundingBox">
      <stop offset="0" stop-color="#eaeaf3"/>
      <stop offset="1" stop-color="#404b54"/>
    </linearGradient>
    <filter id="Rectángulo_167" x="7" y="7" width="44" height="27" filterUnits="userSpaceOnUse">
      <feOffset dy="3" input="SourceAlpha"/>
      <feGaussianBlur stdDeviation="3" result="blur-3"/>
      <feFlood flood-opacity="0.161"/>
      <feComposite operator="in" in2="blur-3"/>
      <feComposite in="SourceGraphic"/>
    </filter>
    <filter id="Elipse_33" x="28" y="12" width="21" height="21" filterUnits="userSpaceOnUse">
      <feOffset dy="3" input="SourceAlpha"/>
      <feGaussianBlur stdDeviation="3" result="blur-4"/>
      <feFlood flood-opacity="0.161"/>
      <feComposite operator="in" in2="blur-4"/>
      <feComposite in="SourceGraphic"/>
    </filter>
  </defs>
  <g id="ClientesIconBlue" transform="translate(-1561 -22)">
    <g transform="matrix(1, 0, 0, 1, 1561, 22)" filter="url(#Rectángulo_166)">
      <g id="Rectángulo_166-2" data-name="Rectángulo 166" transform="translate(9 13)" stroke="rgba(242,242,242,0.15)" stroke-linecap="round" stroke-width="1" fill="url(#linear-gradient)">
        <rect width="40" height="25" rx="5" stroke="none"/>
        <rect x="0.5" y="0.5" width="39" height="24" rx="4.5" fill="none"/>
      </g>
    </g>
    <g transform="matrix(1, 0, 0, 1, 1561, 22)" filter="url(#Rectángulo_168)">
      <g id="Rectángulo_168-2" data-name="Rectángulo 168" transform="translate(16 6)" fill="none" stroke="rgba(242,242,242,0.43)" stroke-miterlimit="10" stroke-width="1">
        <path d="M3.5,0h19A3.5,3.5,0,0,1,26,3.5V9a0,0,0,0,1,0,0H0A0,0,0,0,1,0,9V3.5A3.5,3.5,0,0,1,3.5,0Z" stroke="none"/>
        <path d="M3.5.5h19a3,3,0,0,1,3,3V8a.5.5,0,0,1-.5.5H1A.5.5,0,0,1,.5,8V3.5A3,3,0,0,1,3.5.5Z" fill="none"/>
      </g>
    </g>
    <g transform="matrix(1, 0, 0, 1, 1561, 22)" filter="url(#Rectángulo_167)">
      <g id="Rectángulo_167-2" data-name="Rectángulo 167" transform="translate(42 22) rotate(180)" stroke="rgba(242,242,242,0.43)" stroke-miterlimit="10" stroke-width="1" fill="url(#linear-gradient-2)">
        <path d="M3.5,0h19A3.5,3.5,0,0,1,26,3.5V9a0,0,0,0,1,0,0H0A0,0,0,0,1,0,9V3.5A3.5,3.5,0,0,1,3.5,0Z" stroke="none"/>
        <path d="M3.5.5h19a3,3,0,0,1,3,3V8a.5.5,0,0,1-.5.5H1A.5.5,0,0,1,.5,8V3.5A3,3,0,0,1,3.5.5Z" fill="none"/>
      </g>
    </g>
    <g transform="matrix(1, 0, 0, 1, 1561, 22)" filter="url(#Elipse_33)">
      <g id="Elipse_33-2" data-name="Elipse 33" transform="translate(37 18)" stroke="rgba(242,242,242,0.61)" stroke-linecap="round" stroke-width="0.5" fill="url(#linear-gradient)">
        <circle cx="1.5" cy="1.5" r="1.5" stroke="none"/>
        <circle cx="1.5" cy="1.5" r="1.25" fill="none"/>
      </g>
    </g>
  </g>
</svg>
