<svg xmlns="http://www.w3.org/2000/svg" xmlns:xlink="http://www.w3.org/1999/xlink" width="60.024" height="58.169" viewBox="0 0 60.024 58.169">
  <defs>
    <linearGradient id="linear-gradient" x1="0.018" x2="0.857" y2="0.767" gradientUnits="objectBoundingBox">
      <stop offset="0" stop-color="#0109fc"/>
      <stop offset="1" stop-color="#0a92fc"/>
    </linearGradient>
    <filter id="Sustracción_1" x="6.004" y="17.192" width="48.017" height="40.977" filterUnits="userSpaceOnUse">
      <feOffset dy="3" input="SourceAlpha"/>
      <feGaussianBlur stdDeviation="3" result="blur"/>
      <feFlood flood-opacity="0.161"/>
      <feComposite operator="in" in2="blur"/>
      <feComposite in="SourceGraphic"/>
    </filter>
    <filter id="Polígono_10" x="0" y="0" width="60.024" height="40.977" filterUnits="userSpaceOnUse">
      <feOffset dy="3" input="SourceAlpha"/>
      <feGaussianBlur stdDeviation="3" result="blur-2"/>
      <feFlood flood-opacity="0.161"/>
      <feComposite operator="in" in2="blur-2"/>
      <feComposite in="SourceGraphic"/>
    </filter>
  </defs>
  <g id="HomeIconBlue" transform="translate(5.301 0.857)">
    <g transform="matrix(1, 0, 0, 1, -5.3, -0.86)" filter="url(#Sustracción_1)">
      <g id="Sustracción_1-2" data-name="Sustracción 1" transform="translate(15 23.19)" fill="url(#linear-gradient)">
        <path d="M11.256,22.977H0V0H30.017V22.975H18.76V14.091a3.752,3.752,0,1,0-7.5,0v8.885Z" stroke="none"/>
        <path d="M 9.75629997253418 21.47696685791016 L 9.75629997253418 14.09130001068115 C 9.75629997253418 11.19528007507324 12.112380027771 8.839200019836426 15.00839996337891 8.839200019836426 C 17.90442085266113 8.839200019836426 20.26049995422363 11.19528007507324 20.26049995422363 14.09130001068115 L 20.26049995422363 21.47596740722656 L 28.51679992675781 21.47523307800293 L 28.51679992675781 1.500000238418579 L 1.5 1.500000238418579 L 1.5 21.47623252868652 L 9.75629997253418 21.47696685791016 M 11.25629997253418 22.97710037231445 L 11.25529956817627 22.97710037231445 L -3.662109548940862e-08 22.97610092163086 L -3.662109548940862e-08 1.861572229699959e-07 L 30.01679992675781 1.861572229699959e-07 L 30.01679992675781 22.97509956359863 L 18.76049995422363 22.97610092163086 L 18.76049995422363 14.09130001068115 C 18.76049995422363 12.02239036560059 17.07731056213379 10.33920001983643 15.00839996337891 10.33920001983643 C 12.93949031829834 10.33920001983643 11.25629997253418 12.02239036560059 11.25629997253418 14.09130001068115 L 11.25629997253418 22.97610092163086 L 11.25629997253418 22.97710037231445 Z" stroke="none" fill="rgba(200,200,200,0.14)"/>
      </g>
    </g>
    <g transform="matrix(1, 0, 0, 1, -5.3, -0.86)" filter="url(#Polígono_10)">
      <g id="Polígono_10-2" data-name="Polígono 10" transform="translate(9 6)" fill="url(#linear-gradient)">
        <path d="M20.643.4a.5.5,0,0,1,.738,0L41.258,22.139a.5.5,0,0,1-.369.837H1.135a.5.5,0,0,1-.369-.837Z" stroke="none"/>
        <path d="M 21.01210784912109 2.222715377807617 L 3.404376983642578 21.4769115447998 L 38.61984634399414 21.4769115447998 L 21.01210784912109 2.222715377807617 M 21.01210784912109 0.2409038543701172 C 21.14703941345215 0.2409038543701172 21.28197288513184 0.2950954437255859 21.38108825683594 0.4034805297851563 L 41.25840759277344 22.13948059082031 C 41.55180740356445 22.4603214263916 41.32419967651367 22.9769115447998 40.88942718505859 22.9769115447998 L 1.134788513183594 22.9769115447998 C 0.7000160217285156 22.9769115447998 0.4724082946777344 22.4603214263916 0.7658195495605469 22.13948059082031 L 20.64312744140625 0.4034805297851563 C 20.74224281311035 0.2950954437255859 20.87717628479004 0.2409038543701172 21.01210784912109 0.2409038543701172 Z" stroke="none" fill="rgba(200,200,200,0.14)"/>
      </g>
    </g>
    <rect id="Rectángulo_136" data-name="Rectángulo 136" width="50" height="50" fill="none"/>
  </g>
</svg>
