<svg xmlns="http://www.w3.org/2000/svg" xmlns:xlink="http://www.w3.org/1999/xlink" width="60.024" height="58.169" viewBox="0 0 60.024 58.169">
  <defs>
    <linearGradient id="linear-gradient" x1="0.018" x2="0.857" y2="0.767" gradientUnits="objectBoundingBox">
      <stop offset="0" stop-color="#0109fc"/>
      <stop offset="1" stop-color="#0a92fc"/>
    </linearGradient>
    <filter id="Sustracción_1" x="6.004" y="17.192" width="48.017" height="40.977" filterUnits="userSpaceOnUse">
      <feOffset dy="3" input="SourceAlpha"/>
      <feGaussianBlur stdDeviation="3" result="blur"/>
      <feFlood flood-opacity="0.161"/>
      <feComposite operator="in" in2="blur"/>
      <feComposite in="SourceGraphic"/>
    </filter>
    <filter id="Polígono_10" x="0" y="0" width="60.024" height="40.977" filterUnits="userSpaceOnUse">
      <feOffset dy="3" input="SourceAlpha"/>
      <feGaussianBlur stdDeviation="3" result="blur-2"/>
      <feFlood flood-opacity="0.161"/>
      <feComposite operator="in" in2="blur-2"/>
      <feComposite in="SourceGraphic"/>
    </filter>
  </defs>
  <g id="HomeIconBlue" transform="translate(5.301 0.857)">
    <g transform="matrix(1, 0, 0, 1, -5.3, -0.86)" filter="url(#Sustracción_1)">
      <path id="Sustracción_1-2" data-name="Sustracción 1" d="M11.256,22.977H0V0H30.017V22.975H18.76V14.091a3.752,3.752,0,1,0-7.5,0v8.885Z" transform="translate(15 23.19)" fill="url(#linear-gradient)"/>
    </g>
    <g transform="matrix(1, 0, 0, 1, -5.3, -0.86)" filter="url(#Polígono_10)">
      <path id="Polígono_10-2" data-name="Polígono 10" d="M20.643.4a.5.5,0,0,1,.738,0L41.258,22.139a.5.5,0,0,1-.369.837H1.135a.5.5,0,0,1-.369-.837Z" transform="translate(9 6)" fill="url(#linear-gradient)"/>
    </g>
    <rect id="Rectángulo_136" data-name="Rectángulo 136" width="50" height="50" fill="none"/>
  </g>
</svg>
