<svg xmlns="http://www.w3.org/2000/svg" width="9.675" height="15.134" viewBox="0 0 9.675 15.134">
  <g id="Grupo_103" data-name="Grupo 103" transform="translate(-46.75 -80.7)">
    <g id="Rectángulo_93" data-name="Rectángulo 93" transform="matrix(0.891, 0.454, -0.454, 0.891, 52.752, 82.7)" fill="#fff" stroke="#fff" stroke-width="1">
      <rect width="3" height="10" stroke="none"/>
      <rect x="0.5" y="0.5" width="2" height="9" fill="none"/>
    </g>
    <g id="Rectángulo_94" data-name="Rectángulo 94" transform="matrix(0.891, 0.454, -0.454, 0.891, 53.752, 80.7)" fill="#fff" stroke="#fff" stroke-width="1">
      <path d="M1,0H2A1,1,0,0,1,3,1V2A0,0,0,0,1,3,2H0A0,0,0,0,1,0,2V1A1,1,0,0,1,1,0Z" stroke="none"/>
      <rect x="0.5" y="0.5" width="2" height="1" rx="0.5" fill="none"/>
    </g>
    <path id="Polígono_7" data-name="Polígono 7" d="M1.5,0,3,3H0Z" transform="matrix(-0.891, -0.454, 0.454, -0.891, 49.423, 95.835)" fill="#fff"/>
  </g>
</svg>
