<svg xmlns="http://www.w3.org/2000/svg" xmlns:xlink="http://www.w3.org/1999/xlink" width="46" height="56.989" viewBox="0 0 46 56.989">
  <defs>
    <linearGradient id="linear-gradient" x1="0.018" y1="1" x2="1.701" y2="0.597" gradientUnits="objectBoundingBox">
      <stop offset="0" stop-color="#eaeaf3"/>
      <stop offset="1" stop-color="#404b54"/>
    </linearGradient>
    <filter id="Trazado_48" x="9.418" y="0" width="27.164" height="35.641" filterUnits="userSpaceOnUse">
      <feOffset dy="3" input="SourceAlpha"/>
      <feGaussianBlur stdDeviation="3" result="blur"/>
      <feFlood flood-opacity="0.161"/>
      <feComposite operator="in" in2="blur"/>
      <feComposite in="SourceGraphic"/>
    </filter>
    <linearGradient id="linear-gradient-2" x1="0.018" x2="0.857" y2="0.767" gradientUnits="objectBoundingBox">
      <stop offset="0" stop-color="#0109fc"/>
      <stop offset="1" stop-color="#0a92fc"/>
    </linearGradient>
    <filter id="Rectángulo_138" x="5.167" y="16.989" width="36" height="37.857" filterUnits="userSpaceOnUse">
      <feOffset dy="3" input="SourceAlpha"/>
      <feGaussianBlur stdDeviation="3" result="blur-2"/>
      <feFlood flood-opacity="0.161"/>
      <feComposite operator="in" in2="blur-2"/>
      <feComposite in="SourceGraphic"/>
    </filter>
    <filter id="Trazado_47" x="0" y="36.846" width="46" height="20.143" filterUnits="userSpaceOnUse">
      <feOffset dy="3" input="SourceAlpha"/>
      <feGaussianBlur stdDeviation="3" result="blur-3"/>
      <feFlood flood-opacity="0.161"/>
      <feComposite operator="in" in2="blur-3"/>
      <feComposite in="SourceGraphic"/>
    </filter>
    <filter id="Unión_7" x="2" y="11.641" width="40.999" height="27.001" filterUnits="userSpaceOnUse">
      <feOffset dy="3" input="SourceAlpha"/>
      <feGaussianBlur stdDeviation="3" result="blur-4"/>
      <feFlood flood-opacity="0.161"/>
      <feComposite operator="in" in2="blur-4"/>
      <feComposite in="SourceGraphic"/>
    </filter>
  </defs>
  <g id="MuestraIconBlue" transform="translate(-1415 -15.359)">
    <g transform="matrix(1, 0, 0, 1, 1415, 15.36)" filter="url(#Trazado_48)">
      <g id="Trazado_48-2" data-name="Trazado 48" transform="translate(18 3.98)" stroke-miterlimit="10" fill="url(#linear-gradient)">
        <path d="M4.058,2.928c.18-1.114,1.567-1.3,1.883,0A58,58,0,0,0,7.029,12.26a13.032,13.032,0,0,0,2.494,5.434c.233.959-.25,1.968-.942,1.968H1.419c-.692,0-1.174-1.009-.942-1.968,0,0,1.384-1.078,2.28-4.77A75.965,75.965,0,0,0,4.058,2.928Z" stroke="none"/>
        <path d="M 4.987278461456299 3.937009811401367 C 4.83645486831665 5.855700492858887 4.434530258178711 10.2494535446167 3.728670120239258 13.15998268127441 C 3.005486011505127 16.14192771911621 1.953710556030273 17.59177398681641 1.417752265930176 18.1724853515625 C 1.413711547851563 18.3964729309082 1.47845458984375 18.57629203796387 1.533071517944336 18.66183280944824 L 8.466928482055664 18.66183280944824 C 8.525562286376953 18.57000160217285 8.595865249633789 18.36950302124023 8.580208778381348 18.12236404418945 C 8.085027694702148 17.48909950256348 6.820734024047852 15.64505577087402 6.056920051574707 12.49558258056641 C 5.364301204681396 9.639683723449707 5.084672451019287 5.736695289611816 4.987278461456299 3.937009811401367 M 4.996719360351563 2.020418167114258 C 5.390598773956299 2.020418167114258 5.789858818054199 2.301975250244141 5.941740036010742 2.928232192993164 C 5.941740036010742 2.928232192993164 6.133500099182129 8.568462371826172 7.028749942779541 12.25989246368408 C 7.923999786376953 15.95131206512451 9.522740364074707 17.69391250610352 9.522740364074707 17.69391250610352 C 9.755319595336914 18.65295219421387 9.272529602050781 19.66183280944824 8.581000328063965 19.66183280944824 L 1.418999671936035 19.66183280944824 C 0.7274703979492188 19.66183280944824 0.2446804046630859 18.65295219421387 0.477259635925293 17.69391250610352 C 0.477259635925293 17.69391250610352 1.861590385437012 16.6157112121582 2.756840229034424 12.92429256439209 C 3.652080059051514 9.232872009277344 4.058259963989258 2.928232192993164 4.058259963989258 2.928232192993164 C 4.151639461517334 2.349584579467773 4.571025371551514 2.020418167114258 4.996719360351563 2.020418167114258 Z" stroke="none" fill="rgba(242,242,242,0.24)"/>
      </g>
    </g>
    <g id="Grupo_119" data-name="Grupo 119" transform="translate(1424 38.348)">
      <g transform="matrix(1, 0, 0, 1, -9, -22.99)" filter="url(#Rectángulo_138)">
        <g id="Rectángulo_138-2" data-name="Rectángulo 138" transform="translate(14.17 22.99)" stroke="rgba(242,242,242,0.27)" stroke-linecap="round" stroke-width="1" fill="url(#linear-gradient-2)">
          <rect width="18" height="19.857" stroke="none"/>
          <rect x="0.5" y="0.5" width="17" height="18.857" fill="none"/>
        </g>
      </g>
      <g transform="matrix(1, 0, 0, 1, -9, -22.99)" filter="url(#Trazado_47)">
        <g id="Trazado_47-2" data-name="Trazado 47" transform="translate(9 42.85)" stroke-linecap="round" fill="url(#linear-gradient-2)">
          <path d="M0,0H28V2.143H0Z" stroke="none"/>
          <path d="M 0.5 0.5000036954879761 L 0.5 1.642823696136475 L 27.5 1.642823696136475 L 27.5 0.5000036954879761 L 0.5 0.5000036954879761 M 0 3.576278686523438e-06 L 28 3.576278686523438e-06 L 28 2.142823696136475 L 0 2.142823696136475 L 0 3.576278686523438e-06 Z" stroke="none" fill="rgba(242,242,242,0.27)"/>
        </g>
      </g>
    </g>
    <g transform="matrix(1, 0, 0, 1, 1415, 15.36)" filter="url(#Unión_7)">
      <g id="Unión_7-2" data-name="Unión 7" transform="translate(-2181 7910.64)" stroke-miterlimit="10" fill="url(#linear-gradient)">
        <path d="M2208.69-7885.825a5.682,5.682,0,0,1-3,.825,5.57,5.57,0,0,1-3.394-1.1,6,6,0,0,1-4.82,2.1c-3.024,0-5.476-1.791-5.476-4s2.451-4,5.476-4a6.619,6.619,0,0,1,3.843,1.15,5.165,5.165,0,0,1,4.371-2.15,4.79,4.79,0,0,1,4.832,3.2,3.562,3.562,0,0,1,1.193-.2,3.152,3.152,0,0,1,3.285,3,3.152,3.152,0,0,1-3.285,3A3.307,3.307,0,0,1,2208.69-7885.825Z" stroke="none"/>
        <path d="M 2211.715087890625 -7884.99951171875 C 2212.974853515625 -7884.99951171875 2213.999755859375 -7885.89697265625 2213.999755859375 -7887.00048828125 C 2213.999755859375 -7888.1025390625 2212.974853515625 -7888.99951171875 2211.715087890625 -7888.99951171875 C 2211.41796875 -7888.99951171875 2211.129150390625 -7888.9501953125 2210.8564453125 -7888.853515625 L 2209.817626953125 -7888.48486328125 L 2209.55126953125 -7889.55419921875 C 2209.198486328125 -7890.9716796875 2207.574462890625 -7892.00048828125 2205.690185546875 -7892.00048828125 C 2204.20751953125 -7892.00048828125 2202.82177734375 -7891.33642578125 2202.159912109375 -7890.30859375 L 2201.589599609375 -7889.42333984375 L 2200.73486328125 -7890.03857421875 C 2199.873046875 -7890.65869140625 2198.715576171875 -7891.00048828125 2197.476318359375 -7891.00048828125 C 2195.050048828125 -7891.00048828125 2193.00048828125 -7889.626953125 2193.00048828125 -7888.0009765625 C 2193.00048828125 -7887.25927734375 2193.424560546875 -7886.541015625 2194.1943359375 -7885.978515625 C 2195.058349609375 -7885.34716796875 2196.22412109375 -7884.99951171875 2197.476318359375 -7884.99951171875 C 2199.153564453125 -7884.99951171875 2200.72998046875 -7885.66455078125 2201.4921875 -7886.6943359375 L 2202.098876953125 -7887.513671875 L 2202.90625 -7886.89111328125 C 2203.652099609375 -7886.31640625 2204.640625 -7886 2205.690185546875 -7886 C 2206.598876953125 -7886 2207.453125 -7886.23291015625 2208.160888671875 -7886.673828125 L 2209.118896484375 -7887.2705078125 L 2209.595947265625 -7886.248046875 C 2209.94970703125 -7885.48974609375 2210.781494140625 -7884.99951171875 2211.715087890625 -7884.99951171875 M 2211.715087890625 -7883.99951171875 C 2210.356201171875 -7883.99951171875 2209.1904296875 -7884.751953125 2208.689697265625 -7885.8251953125 C 2207.85888671875 -7885.3076171875 2206.819091796875 -7885 2205.690185546875 -7885 C 2204.37451171875 -7885 2203.1796875 -7885.41796875 2202.2958984375 -7886.09912109375 C 2201.369873046875 -7884.8486328125 2199.558837890625 -7883.99951171875 2197.476318359375 -7883.99951171875 C 2194.451904296875 -7883.99951171875 2192.00048828125 -7885.79052734375 2192.00048828125 -7888.0009765625 C 2192.00048828125 -7890.20947265625 2194.451904296875 -7892.00048828125 2197.476318359375 -7892.00048828125 C 2198.973876953125 -7892.00048828125 2200.33056640625 -7891.5615234375 2201.319091796875 -7890.85009765625 C 2202.14208984375 -7892.1279296875 2203.790283203125 -7893.00048828125 2205.690185546875 -7893.00048828125 C 2208.076904296875 -7893.00048828125 2210.066650390625 -7891.62353515625 2210.521728515625 -7889.7958984375 C 2210.8916015625 -7889.92724609375 2211.2939453125 -7889.99951171875 2211.715087890625 -7889.99951171875 C 2213.52880859375 -7889.99951171875 2214.999755859375 -7888.65673828125 2214.999755859375 -7887.00048828125 C 2214.999755859375 -7885.3427734375 2213.52880859375 -7883.99951171875 2211.715087890625 -7883.99951171875 Z" stroke="none" fill="rgba(242,242,242,0.22)"/>
      </g>
    </g>
    <rect id="Rectángulo_162" data-name="Rectángulo 162" width="40" height="40" transform="translate(1417 21)" fill="none"/>
  </g>
</svg>
