<svg xmlns="http://www.w3.org/2000/svg" xmlns:xlink="http://www.w3.org/1999/xlink" width="40" height="41.599" viewBox="0 0 40 41.599">
  <defs>
    <linearGradient id="linear-gradient" x1="0.018" y1="1" x2="0.857" y2="0.233" gradientUnits="objectBoundingBox">
      <stop offset="0" stop-color="#0109fc"/>
      <stop offset="1" stop-color="#0a92fc"/>
    </linearGradient>
    <linearGradient id="linear-gradient-12" x1="0.018" y1="1" x2="1.701" y2="0.597" gradientUnits="objectBoundingBox">
      <stop offset="0" stop-color="#eaeaf3"/>
      <stop offset="1" stop-color="#404b54"/>
    </linearGradient>
  </defs>
  <g id="ObrasIconBlue" transform="translate(-1251 -23.401)">
    <rect id="Rectángulo_147" data-name="Rectángulo 147" width="40" height="41" transform="translate(1251 24)" fill="none"/>
    <g id="Rectángulo_148" data-name="Rectángulo 148" transform="translate(1255 40)" stroke="rgba(94,84,84,0.69)" stroke-linecap="round" stroke-miterlimit="10" stroke-width="1" fill="url(#linear-gradient)">
      <rect width="10" height="6" stroke="none"/>
      <rect x="0.5" y="0.5" width="9" height="5" fill="none"/>
    </g>
    <g id="Rectángulo_149" data-name="Rectángulo 149" transform="translate(1264 40)" stroke="rgba(94,84,84,0.69)" stroke-miterlimit="10" stroke-width="1" fill="url(#linear-gradient)">
      <rect width="10" height="6" stroke="none"/>
      <rect x="0.5" y="0.5" width="9" height="5" fill="none"/>
    </g>
    <g id="Rectángulo_151" data-name="Rectángulo 151" transform="translate(1273 40)" stroke="rgba(94,84,84,0.69)" stroke-linecap="round" stroke-miterlimit="10" stroke-width="1" fill="url(#linear-gradient)">
      <rect width="10" height="6" stroke="none"/>
      <rect x="0.5" y="0.5" width="9" height="5" fill="none"/>
    </g>
    <g id="Rectángulo_150" data-name="Rectángulo 150" transform="translate(1269 46)" stroke="rgba(94,84,84,0.69)" stroke-linecap="round" stroke-miterlimit="10" stroke-width="1" fill="url(#linear-gradient)">
      <rect width="10" height="6" stroke="none"/>
      <rect x="0.5" y="0.5" width="9" height="5" fill="none"/>
    </g>
    <g id="Rectángulo_152" data-name="Rectángulo 152" transform="translate(1278 46)" stroke="rgba(94,84,84,0.69)" stroke-linecap="round" stroke-miterlimit="10" stroke-width="1" fill="url(#linear-gradient)">
      <rect width="10" height="6" stroke="none"/>
      <rect x="0.5" y="0.5" width="9" height="5" fill="none"/>
    </g>
    <g id="Rectángulo_153" data-name="Rectángulo 153" transform="translate(1255 52)" stroke="rgba(94,84,84,0.69)" stroke-linecap="round" stroke-miterlimit="10" stroke-width="1" fill="url(#linear-gradient)">
      <rect width="10" height="6" stroke="none"/>
      <rect x="0.5" y="0.5" width="9" height="5" fill="none"/>
    </g>
    <g id="Rectángulo_154" data-name="Rectángulo 154" transform="translate(1260 46)" stroke="rgba(94,84,84,0.69)" stroke-linecap="round" stroke-miterlimit="10" stroke-width="1" fill="url(#linear-gradient)">
      <rect width="10" height="6" stroke="none"/>
      <rect x="0.5" y="0.5" width="9" height="5" fill="none"/>
    </g>
    <g id="Rectángulo_155" data-name="Rectángulo 155" transform="translate(1264 52)" stroke="rgba(94,84,84,0.69)" stroke-linecap="round" stroke-miterlimit="10" stroke-width="1" fill="url(#linear-gradient)">
      <rect width="10" height="6" stroke="none"/>
      <rect x="0.5" y="0.5" width="9" height="5" fill="none"/>
    </g>
    <g id="Rectángulo_157" data-name="Rectángulo 157" transform="translate(1260 35)" stroke="rgba(94,84,84,0.69)" stroke-linecap="round" stroke-miterlimit="10" stroke-width="1" fill="url(#linear-gradient)">
      <rect width="10" height="6" stroke="none"/>
      <rect x="0.5" y="0.5" width="9" height="5" fill="none"/>
    </g>
    <g id="Rectángulo_158" data-name="Rectángulo 158" transform="translate(1269 35)" stroke="rgba(94,84,84,0.69)" stroke-linecap="round" stroke-miterlimit="10" stroke-width="1" fill="url(#linear-gradient)">
      <rect width="10" height="6" stroke="none"/>
      <rect x="0.5" y="0.5" width="9" height="5" fill="none"/>
    </g>
    <g id="Rectángulo_156" data-name="Rectángulo 156" transform="translate(1273 52)" stroke="rgba(94,84,84,0.69)" stroke-linecap="round" stroke-miterlimit="10" stroke-width="1" fill="url(#linear-gradient)">
      <rect width="10" height="6" stroke="none"/>
      <rect x="0.5" y="0.5" width="9" height="5" fill="none"/>
    </g>
    <g id="Unión_5" data-name="Unión 5" transform="translate(-924.513 7916.402)" stroke-miterlimit="10" fill="url(#linear-gradient-12)">
      <path d="M2197.612-7874.466l-.095-9.33a1,1,0,0,1,1.5-.877l3.533,2.04,2.815-4.875-.512-.295,3-5.2,2.6,1.5-3,5.2-.356-.206-2.814,4.875,2.96,1.709a1,1,0,0,1-.01,1.737l-8.127,4.583a.99.99,0,0,1-.49.13A1,1,0,0,1,2197.612-7874.466Z" stroke="none"/>
      <path d="M 2198.6123046875 -7874.474609375 L 2198.61279296875 -7874.47509765625 L 2206.74072265625 -7879.05908203125 C 2206.74072265625 -7879.05908203125 2206.74072265625 -7879.05908203125 2206.74072265625 -7879.05908203125 C 2206.74072265625 -7879.05908203125 2206.74072265625 -7879.05908203125 2206.74072265625 -7879.05908203125 L 2203.78125 -7880.767578125 L 2202.91552734375 -7881.267578125 L 2202.91552734375 -7881.26708984375 L 2202.049560546875 -7881.76708984375 L 2198.517578125 -7883.806640625 C 2198.517578125 -7883.80615234375 2198.517333984375 -7883.80615234375 2198.517333984375 -7883.80615234375 C 2198.517333984375 -7883.80615234375 2198.517333984375 -7883.8056640625 2198.517333984375 -7883.8056640625 L 2198.6123046875 -7874.4765625 C 2198.6123046875 -7874.4755859375 2198.6123046875 -7874.47509765625 2198.6123046875 -7874.474609375 C 2198.6123046875 -7874.474609375 2198.6123046875 -7874.474609375 2198.6123046875 -7874.474609375 M 2207.08544921875 -7887.66943359375 L 2209.084716796875 -7891.13330078125 L 2208.21923828125 -7891.6337890625 L 2206.218994140625 -7888.16943359375 L 2206.730712890625 -7887.87451171875 L 2206.730712890625 -7887.8740234375 L 2207.08544921875 -7887.66943359375 M 2198.613037109375 -7873.4736328125 C 2198.09375 -7873.4736328125 2197.618408203125 -7873.88720703125 2197.6123046875 -7874.4658203125 L 2197.517333984375 -7883.79541015625 C 2197.51123046875 -7884.38427734375 2197.993408203125 -7884.80810546875 2198.519287109375 -7884.80810546875 C 2198.685546875 -7884.80810546875 2198.85595703125 -7884.765625 2199.016845703125 -7884.6728515625 L 2202.549560546875 -7882.63330078125 L 2205.3642578125 -7887.5078125 L 2204.8525390625 -7887.802734375 L 2207.853515625 -7893.00048828125 L 2210.450439453125 -7891.4990234375 L 2207.451416015625 -7886.30322265625 L 2207.095458984375 -7886.5087890625 L 2204.28125 -7881.6337890625 L 2207.241455078125 -7879.9248046875 C 2207.910888671875 -7879.53662109375 2207.906982421875 -7878.56787109375 2207.2314453125 -7878.1875 L 2199.10400390625 -7873.60400390625 C 2198.945068359375 -7873.51416015625 2198.77734375 -7873.4736328125 2198.614013671875 -7873.4736328125 C 2198.61376953125 -7873.4736328125 2198.61328125 -7873.4736328125 2198.613037109375 -7873.4736328125 Z" stroke="none" fill="rgba(242,242,242,0.25)"/>
    </g>
  </g>
</svg>
