<svg xmlns="http://www.w3.org/2000/svg" xmlns:xlink="http://www.w3.org/1999/xlink" width="60" height="60" viewBox="0 0 60 60">
  <defs>
    <filter id="Unión_1" x="0" y="0" width="60" height="38" filterUnits="userSpaceOnUse">
      <feOffset dy="3" input="SourceAlpha"/>
      <feGaussianBlur stdDeviation="3" result="blur"/>
      <feFlood flood-opacity="0.161"/>
      <feComposite operator="in" in2="blur"/>
      <feComposite in="SourceGraphic"/>
    </filter>
    <filter id="Unión_2" x="0" y="22" width="60" height="38" filterUnits="userSpaceOnUse">
      <feOffset dy="3" input="SourceAlpha"/>
      <feGaussianBlur stdDeviation="3" result="blur-2"/>
      <feFlood flood-opacity="0.161"/>
      <feComposite operator="in" in2="blur-2"/>
      <feComposite in="SourceGraphic"/>
    </filter>
  </defs>
  <g id="PruebaIcon" transform="translate(10.05 7)">
    <g transform="matrix(1, 0, 0, 1, -10.05, -7)" filter="url(#Unión_1)">
      <g id="Unión_1-2" data-name="Unión 1" transform="translate(10 7)" fill="none" stroke-linecap="round" stroke-linejoin="round">
        <path d="M14.667,12.6H18V2.7H0V0H40V2.7H22v9.9h3.334L20,18Z" stroke="none"/>
        <path d="M 20 18 L 25.33398056030273 12.59941005706787 L 21.99950981140137 12.59941005706787 L 21.99950981140137 2.699409961700439 L 40 2.699409961700439 L 40 0 L 0 0 L 0 2.699409961700439 L 18 2.699409961700439 L 18 12.59941005706787 L 14.66748046875 12.59941005706787 L 20 18 M 20.0000057220459 19 C 19.99997138977051 19 19.99996185302734 19 19.99992942810059 19 C 19.73254013061523 18.99998092651367 19.47628974914551 18.89287948608398 19.28841972351074 18.70261001586914 L 13.95590019226074 13.30202007293701 C 13.67253971099854 13.01502990722656 13.58930015563965 12.5859203338623 13.74481964111328 12.21380043029785 C 13.90034008026123 11.84167957305908 14.26416969299316 11.59941005706787 14.66748046875 11.59941005706787 L 17 11.59941005706787 L 17 3.699409961700439 L 0 3.699409961700439 C -0.5522800087928772 3.699409961700439 -1 3.251689910888672 -1 2.699409961700439 L -1 0 C -1 -0.5522800087928772 -0.5522800087928772 -1 0 -1 L 40 -1 C 40.55228042602539 -1 41 -0.5522800087928772 41 0 L 41 2.699409961700439 C 41 3.251689910888672 40.55228042602539 3.699409961700439 40 3.699409961700439 L 22.99950981140137 3.699409961700439 L 22.99950981140137 11.59941005706787 L 25.33398056030273 11.59941005706787 C 25.7373104095459 11.59941005706787 26.10116004943848 11.84171009063721 26.25666999816895 12.21385955810547 C 26.41217041015625 12.58600997924805 26.32888984680176 13.01515007019043 26.04545974731445 13.30212020874023 L 20.71147918701172 18.70270919799805 C 20.52360343933105 18.8929271697998 20.26735877990723 19 20.0000057220459 19 Z" stroke="none" fill="#c8c8c8"/>
      </g>
    </g>
    <g transform="matrix(1, 0, 0, 1, -10.05, -7)" filter="url(#Unión_2)">
      <g id="Unión_2-2" data-name="Unión 2" transform="translate(50 47) rotate(-180)" fill="none" stroke-linecap="round" stroke-linejoin="round">
        <path d="M14.667,12.6H18V2.7H0V0H40V2.7H22v9.9h3.334L20,18Z" stroke="none"/>
        <path d="M 20 18 L 25.33349990844727 12.60000038146973 L 21.99901962280273 12.60000038146973 L 21.99901962280273 2.698829889297485 L 40 2.698829889297485 L 40 0 L 0 0 L 0 2.698829889297485 L 18 2.698829889297485 L 18 12.60000038146973 L 14.66748046875 12.60000038146973 L 20 18 M 19.99998664855957 19 C 19.99997138977051 19 19.99996566772461 19 19.99995040893555 19 C 19.73257064819336 18.99999046325684 19.47633934020996 18.89290046691895 19.28845977783203 18.70265007019043 L 13.95594024658203 13.30265045166016 C 13.67255020141602 13.01566982269287 13.58928966522217 12.58654022216797 13.74481010437012 12.21440982818604 C 13.90032005310059 11.84228038787842 14.26416015625 11.60000038146973 14.66748046875 11.60000038146973 L 17 11.60000038146973 L 17 3.698829889297485 L 0 3.698829889297485 C -0.5522800087928772 3.698829889297485 -1 3.251110076904297 -1 2.698829889297485 L -1 0 C -1 -0.5522800087928772 -0.5522800087928772 -1 0 -1 L 40 -1 C 40.55228042602539 -1 41 -0.5522800087928772 41 0 L 41 2.698829889297485 C 41 3.251110076904297 40.55228042602539 3.698829889297485 40 3.698829889297485 L 22.99901962280273 3.698829889297485 L 22.99901962280273 11.60000038146973 L 25.33349990844727 11.60000038146973 C 25.73682975769043 11.60000038146973 26.1006908416748 11.84230041503906 26.25618934631348 12.2144603729248 C 26.41168975830078 12.58660984039307 26.32839965820313 13.01574993133545 26.04496955871582 13.30270957946777 L 20.71146965026855 18.70270919799805 C 20.52359199523926 18.8929386138916 20.26734924316406 19 19.99998664855957 19 Z" stroke="none" fill="#c8c8c8"/>
      </g>
    </g>
  </g>
</svg>
