<svg xmlns="http://www.w3.org/2000/svg" xmlns:xlink="http://www.w3.org/1999/xlink" width="53" height="52.243" viewBox="0 0 53 52.243">
  <defs>
    <linearGradient id="linear-gradient" x1="0.018" x2="0.857" y2="0.767" gradientUnits="objectBoundingBox">
      <stop offset="0" stop-color="#0109fc"/>
      <stop offset="1" stop-color="#0a92fc"/>
    </linearGradient>
    <filter id="Elipse_31" x="2" y="5.081" width="31" height="31" filterUnits="userSpaceOnUse">
      <feOffset dy="3" input="SourceAlpha"/>
      <feGaussianBlur stdDeviation="3" result="blur"/>
      <feFlood flood-opacity="0.161"/>
      <feComposite operator="in" in2="blur"/>
      <feComposite in="SourceGraphic"/>
    </filter>
    <filter id="Elipse_32" x="21" y="5.081" width="31" height="31" filterUnits="userSpaceOnUse">
      <feOffset dy="3" input="SourceAlpha"/>
      <feGaussianBlur stdDeviation="3" result="blur-2"/>
      <feFlood flood-opacity="0.161"/>
      <feComposite operator="in" in2="blur-2"/>
      <feComposite in="SourceGraphic"/>
    </filter>
    <linearGradient id="linear-gradient-3" x1="0.018" y1="1" x2="1.701" y2="0.597" gradientUnits="objectBoundingBox">
      <stop offset="0" stop-color="#eaeaf3"/>
      <stop offset="1" stop-color="#404b54"/>
    </linearGradient>
    <filter id="Trazado_50" x="12" y="0" width="31" height="31" filterUnits="userSpaceOnUse">
      <feOffset dy="3" input="SourceAlpha"/>
      <feGaussianBlur stdDeviation="3" result="blur-3"/>
      <feFlood flood-opacity="0.161"/>
      <feComposite operator="in" in2="blur-3"/>
      <feComposite in="SourceGraphic"/>
    </filter>
    <filter id="Rectángulo_164" x="21" y="19.243" width="32" height="33" filterUnits="userSpaceOnUse">
      <feOffset dy="3" input="SourceAlpha"/>
      <feGaussianBlur stdDeviation="3" result="blur-4"/>
      <feFlood flood-opacity="0.161"/>
      <feComposite operator="in" in2="blur-4"/>
      <feComposite in="SourceGraphic"/>
    </filter>
    <filter id="Rectángulo_165" x="0" y="19.243" width="32" height="33" filterUnits="userSpaceOnUse">
      <feOffset dy="3" input="SourceAlpha"/>
      <feGaussianBlur stdDeviation="3" result="blur-5"/>
      <feFlood flood-opacity="0.161"/>
      <feComposite operator="in" in2="blur-5"/>
      <feComposite in="SourceGraphic"/>
    </filter>
    <filter id="Rectángulo_163" x="11" y="13.243" width="32" height="39" filterUnits="userSpaceOnUse">
      <feOffset dy="3" input="SourceAlpha"/>
      <feGaussianBlur stdDeviation="3" result="blur-6"/>
      <feFlood flood-opacity="0.161"/>
      <feComposite operator="in" in2="blur-6"/>
      <feComposite in="SourceGraphic"/>
    </filter>
  </defs>
  <g id="UserIconBlue" transform="translate(-1472.5 -30.5)">
    <g transform="matrix(1, 0, 0, 1, 1472.5, 30.5)" filter="url(#Elipse_31)">
      <circle id="Elipse_31-2" data-name="Elipse 31" cx="6.5" cy="6.5" r="6.5" transform="translate(11 11.08)" fill="url(#linear-gradient)"/>
    </g>
    <g transform="matrix(1, 0, 0, 1, 1472.5, 30.5)" filter="url(#Elipse_32)">
      <circle id="Elipse_32-2" data-name="Elipse 32" cx="6.5" cy="6.5" r="6.5" transform="translate(30 11.08)" fill="url(#linear-gradient)"/>
    </g>
    <g transform="matrix(1, 0, 0, 1, 1472.5, 30.5)" filter="url(#Trazado_50)">
      <path id="Trazado_50-2" data-name="Trazado 50" d="M6.5,0A6.5,6.5,0,1,1,0,6.5,6.5,6.5,0,0,1,6.5,0Z" transform="translate(21 6)" fill="url(#linear-gradient-3)"/>
    </g>
    <g transform="matrix(1, 0, 0, 1, 1472.5, 30.5)" filter="url(#Rectángulo_164)">
      <path id="Rectángulo_164-2" data-name="Rectángulo 164" d="M3.5,0h7A3.5,3.5,0,0,1,14,3.5V15a0,0,0,0,1,0,0H0a0,0,0,0,1,0,0V3.5A3.5,3.5,0,0,1,3.5,0Z" transform="translate(30 25.24)" fill="url(#linear-gradient)"/>
    </g>
    <g transform="matrix(1, 0, 0, 1, 1472.5, 30.5)" filter="url(#Rectángulo_165)">
      <path id="Rectángulo_165-2" data-name="Rectángulo 165" d="M3.5,0h7A3.5,3.5,0,0,1,14,3.5V15a0,0,0,0,1,0,0H0a0,0,0,0,1,0,0V3.5A3.5,3.5,0,0,1,3.5,0Z" transform="translate(9 25.24)" fill="url(#linear-gradient)"/>
    </g>
    <g transform="matrix(1, 0, 0, 1, 1472.5, 30.5)" filter="url(#Rectángulo_163)">
      <path id="Rectángulo_163-2" data-name="Rectángulo 163" d="M3.5,0h7A3.5,3.5,0,0,1,14,3.5V21a0,0,0,0,1,0,0H0a0,0,0,0,1,0,0V3.5A3.5,3.5,0,0,1,3.5,0Z" transform="translate(20 19.24)" fill="url(#linear-gradient-3)"/>
    </g>
  </g>
</svg>
