<svg xmlns="http://www.w3.org/2000/svg" xmlns:xlink="http://www.w3.org/1999/xlink" width="53" height="52.243" viewBox="0 0 53 52.243">
  <defs>
    <filter id="Elipse_31" x="2" y="5.081" width="31" height="31" filterUnits="userSpaceOnUse">
      <feOffset dy="3" input="SourceAlpha"/>
      <feGaussianBlur stdDeviation="3" result="blur"/>
      <feFlood flood-opacity="0.161"/>
      <feComposite operator="in" in2="blur"/>
      <feComposite in="SourceGraphic"/>
    </filter>
    <filter id="Trazado_51" x="21" y="5.081" width="31" height="31" filterUnits="userSpaceOnUse">
      <feOffset dy="3" input="SourceAlpha"/>
      <feGaussianBlur stdDeviation="3" result="blur-2"/>
      <feFlood flood-opacity="0.161"/>
      <feComposite operator="in" in2="blur-2"/>
      <feComposite in="SourceGraphic"/>
    </filter>
    <linearGradient id="linear-gradient" x1="0.018" y1="1" x2="1.701" y2="0.597" gradientUnits="objectBoundingBox">
      <stop offset="0" stop-color="#eaeaf3"/>
      <stop offset="1" stop-color="#f2f2f2"/>
    </linearGradient>
    <filter id="Trazado_50" x="12" y="0" width="31" height="31" filterUnits="userSpaceOnUse">
      <feOffset dy="3" input="SourceAlpha"/>
      <feGaussianBlur stdDeviation="3" result="blur-3"/>
      <feFlood flood-opacity="0.161"/>
      <feComposite operator="in" in2="blur-3"/>
      <feComposite in="SourceGraphic"/>
    </filter>
    <filter id="Rectángulo_164" x="25" y="19.243" width="28" height="33" filterUnits="userSpaceOnUse">
      <feOffset dy="3" input="SourceAlpha"/>
      <feGaussianBlur stdDeviation="3" result="blur-4"/>
      <feFlood flood-opacity="0.161"/>
      <feComposite operator="in" in2="blur-4"/>
      <feComposite in="SourceGraphic"/>
    </filter>
    <filter id="Rectángulo_165" x="0" y="19.243" width="29" height="33" filterUnits="userSpaceOnUse">
      <feOffset dy="3" input="SourceAlpha"/>
      <feGaussianBlur stdDeviation="3" result="blur-5"/>
      <feFlood flood-opacity="0.161"/>
      <feComposite operator="in" in2="blur-5"/>
      <feComposite in="SourceGraphic"/>
    </filter>
    <filter id="Rectángulo_163" x="11" y="13.243" width="32" height="39" filterUnits="userSpaceOnUse">
      <feOffset dy="3" input="SourceAlpha"/>
      <feGaussianBlur stdDeviation="3" result="blur-6"/>
      <feFlood flood-opacity="0.161"/>
      <feComposite operator="in" in2="blur-6"/>
      <feComposite in="SourceGraphic"/>
    </filter>
  </defs>
  <g id="UserIcon" transform="translate(-1472.5 -30.5)">
    <g transform="matrix(1, 0, 0, 1, 1472.5, 30.5)" filter="url(#Elipse_31)">
      <g id="Elipse_31-2" data-name="Elipse 31" transform="translate(11 11.08)" fill="none" stroke="#f2f2f2" stroke-linecap="round" stroke-width="1">
        <circle cx="6.5" cy="6.5" r="6.5" stroke="none"/>
        <circle cx="6.5" cy="6.5" r="6" fill="none"/>
      </g>
    </g>
    <g transform="matrix(1, 0, 0, 1, 1472.5, 30.5)" filter="url(#Trazado_51)">
      <g id="Trazado_51-2" data-name="Trazado 51" transform="translate(30 11.08)" fill="none" stroke-linecap="round">
        <path d="M6.5,0A6.5,6.5,0,1,1,0,6.5,6.5,6.5,0,0,1,6.5,0Z" stroke="none"/>
        <path d="M 6.5 1 C 3.467289924621582 1 1 3.467289924621582 1 6.5 C 1 9.532710075378418 3.467289924621582 12 6.5 12 C 9.532710075378418 12 12 9.532710075378418 12 6.5 C 12 3.467289924621582 9.532710075378418 1 6.5 1 M 6.5 0 C 10.0898494720459 0 13 2.910149574279785 13 6.5 C 13 10.0898494720459 10.0898494720459 13 6.5 13 C 2.910149574279785 13 0 10.0898494720459 0 6.5 C 0 2.910149574279785 2.910149574279785 0 6.5 0 Z" stroke="none" fill="#f2f2f2"/>
      </g>
    </g>
    <g transform="matrix(1, 0, 0, 1, 1472.5, 30.5)" filter="url(#Trazado_50)">
      <path id="Trazado_50-2" data-name="Trazado 50" d="M6.5,0A6.5,6.5,0,1,1,0,6.5,6.5,6.5,0,0,1,6.5,0Z" transform="translate(21 6)" fill="url(#linear-gradient)"/>
    </g>
    <g transform="matrix(1, 0, 0, 1, 1472.5, 30.5)" filter="url(#Rectángulo_164)">
      <g id="Rectángulo_164-2" data-name="Rectángulo 164" transform="translate(34 25.24)" fill="none" stroke="#f2f2f2" stroke-linecap="round" stroke-width="1">
        <path d="M0,0H6.5A3.5,3.5,0,0,1,10,3.5V15a0,0,0,0,1,0,0H0a0,0,0,0,1,0,0V0A0,0,0,0,1,0,0Z" stroke="none"/>
        <path d="M1,.5H6.5a3,3,0,0,1,3,3V14a.5.5,0,0,1-.5.5H1A.5.5,0,0,1,.5,14V1A.5.5,0,0,1,1,.5Z" fill="none"/>
      </g>
    </g>
    <g transform="matrix(1, 0, 0, 1, 1472.5, 30.5)" filter="url(#Rectángulo_165)">
      <g id="Rectángulo_165-2" data-name="Rectángulo 165" transform="translate(9 25.24)" fill="none" stroke="#f2f2f2" stroke-linecap="round" stroke-width="1">
        <path d="M3.5,0H11a0,0,0,0,1,0,0V15a0,0,0,0,1,0,0H0a0,0,0,0,1,0,0V3.5A3.5,3.5,0,0,1,3.5,0Z" stroke="none"/>
        <path d="M3.5.5H10a.5.5,0,0,1,.5.5V14a.5.5,0,0,1-.5.5H1A.5.5,0,0,1,.5,14V3.5A3,3,0,0,1,3.5.5Z" fill="none"/>
      </g>
    </g>
    <g transform="matrix(1, 0, 0, 1, 1472.5, 30.5)" filter="url(#Rectángulo_163)">
      <path id="Rectángulo_163-2" data-name="Rectángulo 163" d="M3.5,0h7A3.5,3.5,0,0,1,14,3.5V21a0,0,0,0,1,0,0H0a0,0,0,0,1,0,0V3.5A3.5,3.5,0,0,1,3.5,0Z" transform="translate(20 19.24)" fill="url(#linear-gradient)"/>
    </g>
  </g>
</svg>
